<svg xmlns="http://www.w3.org/2000/svg" width="1200" height="675" viewBox="0 0 1200 675">
  <rect width="1200" height="675" fill="#F5F7FA"/>
  <rect x="0" y="0" width="1200" height="220" fill="#E68A2C"/>
  <g fill="#E68A2C">
    <rect x="60" y="520" width="40" height="70"/>
    <rect x="122" y="475" width="40" height="115"/>
    <rect x="184" y="445" width="40" height="145"/>
    <rect x="246" y="505" width="40" height="85"/>
    <rect x="308" y="485" width="40" height="105"/>
    <rect x="370" y="450" width="40" height="140"/>
    <rect x="432" y="520" width="40" height="70"/>
    <rect x="494" y="470" width="40" height="120"/>
    <rect x="556" y="490" width="40" height="100"/>
    <rect x="618" y="455" width="40" height="135"/>
  </g>
  <!-- stacked cards -->
  <g stroke="#E68A2C" fill="none" stroke-width="8" opacity="0.7">
    <rect x="820" y="330" width="250" height="160" rx="8"/>
    <rect x="845" y="355" width="250" height="160" rx="8"/>
    <rect x="870" y="380" width="250" height="160" rx="8"/>
  </g>
</svg>
