<svg xmlns="http://www.w3.org/2000/svg" width="1200" height="675" viewBox="0 0 1200 675">
  <rect width="1200" height="675" fill="#F5F7FA"/>
  <rect x="0" y="0" width="1200" height="220" fill="#1C75BC"/>
  <g fill="#1C75BC">
    <rect x="60" y="470" width="40" height="120"/>
    <rect x="122" y="520" width="40" height="70"/>
    <rect x="184" y="430" width="40" height="160"/>
    <rect x="246" y="500" width="40" height="90"/>
    <rect x="308" y="455" width="40" height="135"/>
    <rect x="370" y="435" width="40" height="155"/>
    <rect x="432" y="520" width="40" height="70"/>
    <rect x="494" y="470" width="40" height="120"/>
    <rect x="556" y="490" width="40" height="100"/>
    <rect x="618" y="450" width="40" height="140"/>
  </g>
  <g fill="#1C75BC">
    <polygon points="840,280 1060,280 1000,340 900,340" opacity="0.25"/>
    <polygon points="860,345 1040,345 990,400 910,400" opacity="0.35"/>
    <polygon points="880,410 1020,410 990,455 910,455" opacity="0.55"/>
  </g>
</svg>
