<svg xmlns="http://www.w3.org/2000/svg" width="1200" height="675" viewBox="0 0 1200 675">
  <rect width="1200" height="675" fill="#F5F7FA"/>
  <rect x="0" y="0" width="1200" height="220" fill="#24AB8E"/>
  <g fill="#24AB8E">
    <rect x="60" y="520" width="40" height="70"/>
    <rect x="122" y="480" width="40" height="110"/>
    <rect x="184" y="430" width="40" height="160"/>
    <rect x="246" y="500" width="40" height="90"/>
    <rect x="308" y="450" width="40" height="140"/>
    <rect x="370" y="520" width="40" height="70"/>
    <rect x="432" y="470" width="40" height="120"/>
    <rect x="494" y="445" width="40" height="145"/>
    <rect x="556" y="505" width="40" height="85"/>
    <rect x="618" y="475" width="40" height="115"/>
  </g>
  <!-- nodes/workflow -->
  <g>
    <rect x="820" y="300" width="120" height="56" fill="#24AB8E" opacity="0.25" rx="8"/>
    <rect x="980" y="380" width="120" height="56" fill="#24AB8E" opacity="0.25" rx="8"/>
    <rect x="860" y="460" width="120" height="56" fill="#24AB8E" opacity="0.25" rx="8"/>
    <line x1="880" y1="328" x2="980" y2="408" stroke="#24AB8E" stroke-width="6"/>
    <line x1="940" y1="488" x2="1040" y2="408" stroke="#24AB8E" stroke-width="6"/>
  </g>
</svg>
