<svg xmlns="http://www.w3.org/2000/svg" width="1200" height="675" viewBox="0 0 1200 675">
  <rect width="1200" height="675" fill="#F5F7FA"/>
  <rect x="0" y="0" width="1200" height="220" fill="#7850C8"/>
  <!-- bars -->
  <g fill="#7850C8">
    <rect x="60" y="520" width="40" height="70"/>
    <rect x="122" y="465" width="40" height="125"/>
    <rect x="184" y="440" width="40" height="150"/>
    <rect x="246" y="505" width="40" height="85"/>
    <rect x="308" y="470" width="40" height="120"/>
    <rect x="370" y="430" width="40" height="160"/>
    <rect x="432" y="520" width="40" height="70"/>
    <rect x="494" y="480" width="40" height="110"/>
    <rect x="556" y="510" width="40" height="80"/>
    <rect x="618" y="450" width="40" height="140"/>
  </g>
  <!-- simple world/map dots -->
  <g fill="#7850C8" opacity="0.25">
    <circle cx="900" cy="360" r="6"/>
    <circle cx="840" cy="380" r="8"/>
    <circle cx="960" cy="420" r="7"/>
    <circle cx="1040" cy="360" r="5"/>
    <circle cx="920" cy="470" r="9"/>
    <circle cx="980" cy="300" r="7"/>
  </g>
</svg>
